<svg xmlns="http://www.w3.org/2000/svg" width="380" height="135.4" viewBox="0 0 380 135.4"><path fill="none" stroke="#FFF" stroke-miterlimit="10" stroke-width="1.897" d="M177.6 50s22.3-4.9 51.1 1.6S290 67.4 290 67.4s7.2 2.4 7.2 3.8"/><path fill="none" stroke="#FFF" stroke-linecap="round" stroke-miterlimit="10" stroke-width="2.476" d="M196.6 66.9l39.4 6.2h37.9"/><path fill="#8FC0E4" d="M98.1 63.5s17-12.7 43.4-4.4c0 0 21.4-9.1 38.2-10.3l5.6 35.4-78.3.6-8.9-21.3z"/><path fill="none" stroke="#FFF" stroke-miterlimit="10" stroke-width="1.238" d="M274.5 80.5V63.1"/><path fill="#FFF" d="M295 80.5c1.9-1.7 6.7-2.7 7-7.7.2-3.8-7-5-9.4-5.7-4.6-1.3-9.5-1.7-14.1-3-1.1-.3-2.3-.7-3.4-1l-.4 18.6 20.5-1.3"/><path fill="#061B30" stroke="#8FC0E4" stroke-linejoin="round" stroke-miterlimit="10" stroke-width="1.897" d="M111.9 81.7c-3 9.5-15.7 13.9-28.5 9.8S62.6 76.6 65.5 67.2 81.2 53.3 94 57.4s20.9 14.8 17.9 24.3z"/><path fill="#FFF" d="M72.9 79.8s8.9-5 8.7-15.8c0-.1 2.7.7 3 .8 4.2 1.4 9.1 2.9 11.8 6.8.7 1 1.3 2.3 1.7 3.5.4 1.5.6 3.2.5 4.7-.2.5-25.7 0-25.7 0z"/><path fill="none" stroke="#061B30" stroke-linecap="round" stroke-linejoin="round" stroke-miterlimit="10" stroke-width="1.897" d="M147.2 68.2l-27.5 6.3"/><path fill="#FFF" d="M124.4 80.5v-8c-3.7.1-4.5.3-6.3.4-3.4.3-6.9.3-10.1 1.9-2.1 1-4.6 2.8-4.7 5.5l21.1.2z"/><path fill="none" stroke="#051A30" stroke-linecap="round" stroke-linejoin="round" stroke-miterlimit="10" stroke-width="1.897" d="M163.2 78.6s-3.2-15.5-22.6-20.7"/><path fill="none" stroke="#061B30" stroke-linecap="round" stroke-linejoin="round" stroke-miterlimit="10" stroke-width="1.581" d="M84.4 73.3s1.7-1.8.8-5.1M91.8 80.5s2.1-2.4 1.4-5.8"/><path fill="#8FC0E4" d="M29.3 110.5h210.8v8.7H29.3z"/><path fill="none" stroke="#8FC0E4" stroke-linejoin="round" stroke-miterlimit="10" stroke-width="1.897" d="M350.5 118.4l-127.8-.2v-9.6l127.8.2z"/><path fill="#FFF" d="M29.4 110.6V83.1c0-2 1.6-3.6 3.6-3.6l314.7.2c2 0 3.6 1.6 3.6 3.6v27.6"/><path fill="#8FC0E4" d="M29.3 110.6l211.1-.3V83.1c0-2 1.6-3.6 3.6-3.6l103.9.2c2 0 3.6 1.6 3.6 3.6v27.6"/><path fill="none" stroke="#051A30" stroke-miterlimit="10" stroke-width="2.476" d="M272.7 73.1h29.7"/><path fill="none" stroke="#8FC0E4" stroke-linejoin="round" stroke-miterlimit="10" stroke-width="2.476" d="M44 120.2h7.4v13.6H44zM108.3 120.2h6.2v13.6h-6.2z"/><path fill="none" stroke="#8FC0E4" stroke-linejoin="round" stroke-miterlimit="10" stroke-width="1.897" d="M248.3 118.2h7.2V133h-7.2zM335.1 118.4h7.2v14.8h-7.2z"/><path fill="none" stroke="#8FC0E4" stroke-linecap="round" stroke-linejoin="round" stroke-miterlimit="10" stroke-width="2.476" d="M40.3 39.6V90s-.3 7.7 8.7 7.7"/><path fill="none" stroke="#8FC0E4" stroke-linecap="round" stroke-linejoin="round" stroke-miterlimit="10" stroke-width="1.897" d="M45.5 43.3l-4.8-4.7h-.3l-4.8 4.7M41.3 2.9c-.1 0-2.9 1.1-2.9 4.4 0 3.3 2.9 3.3 2.9 6.5 0 3.3-2.9 3.3-2.9 6.5 0 3.3 2.9 3.3 2.9 6.5s-2.9 4.4-2.9 4.4"/><g fill="none" stroke="#FFF" stroke-linecap="round" stroke-miterlimit="10" stroke-width="1.897"><path d="M244.8 93.6l4.8 4.8h.3l4.8-4.7M249.8 98V86"/></g><path fill="none" stroke="#8FC0E4" stroke-linecap="round" stroke-linejoin="round" stroke-miterlimit="10" stroke-width="1.897" d="M228.8 98.3c0-.1-1.1-2.9-4.3-2.9-3.3 0-3.3 2.9-6.5 2.9-3.3 0-3.3-2.9-6.5-2.9-3.3 0-3.3 2.9-6.5 2.9s-4.4-2.9-4.3-2.9"/><path fill="none" stroke="#FFF" stroke-linecap="round" stroke-miterlimit="10" stroke-width="1.897" d="M296.1 98.3c0-.1-1.1-2.9-4.3-2.9-3.3 0-3.3 2.9-6.5 2.9-3.3 0-3.3-2.9-6.5-2.9-3.3 0-3.3 2.9-6.5 2.9s-4.4-2.9-4.3-2.9"/><g fill="none" stroke="#8FC0E4" stroke-linecap="round" stroke-linejoin="round" stroke-miterlimit="10" stroke-width="1.897"><path d="M180.3 93.6l4.8 4.8h.3l4.8-4.7M185.3 98V86"/></g><path fill="none" stroke="#8FC0E4" stroke-linecap="round" stroke-linejoin="round" stroke-miterlimit="10" stroke-width="1.897" d="M167.2 98.3c0-.1-1.1-2.9-4.3-2.9-3.3 0-3.3 2.9-6.5 2.9-3.3 0-3.3-2.9-6.5-2.9-3.3 0-3.3 2.9-6.5 2.9-3.3 0-4.4-2.9-4.3-2.9"/><g fill="none" stroke="#8FC0E4" stroke-linecap="round" stroke-linejoin="round" stroke-miterlimit="10" stroke-width="1.897"><path d="M116.4 93.6l4.8 4.8h.3l4.8-4.7M121.4 98V86"/></g><path fill="none" stroke="#8FC0E4" stroke-linecap="round" stroke-linejoin="round" stroke-miterlimit="10" stroke-width="1.897" d="M103.5 98.3c0-.1-1.1-2.9-4.3-2.9-3.3 0-3.3 2.9-6.5 2.9-3.3 0-3.3-2.9-6.5-2.9-3.3 0-3.3 2.9-6.5 2.9s-4.4-2.9-4.3-2.9"/><path fill="none" stroke="#8FC0E4" stroke-linecap="round" stroke-miterlimit="10" stroke-width="1.897" d="M.9 134.4h378.2"/><path fill="none" stroke="#8FC0E4" stroke-linecap="round" stroke-linejoin="round" stroke-miterlimit="10" stroke-width="2.476" d="M55.1 39.6V90s-.3 7.7 8.7 7.7"/><path fill="none" stroke="#8FC0E4" stroke-linecap="round" stroke-linejoin="round" stroke-miterlimit="10" stroke-width="1.897" d="M60.2 43.3l-4.8-4.7h-.3l-4.8 4.7M56 2.9c-.1 0-2.9 1.1-2.9 4.4 0 3.3 2.9 3.3 2.9 6.5 0 3.3-2.9 3.3-2.9 6.5 0 3.3 2.9 3.3 2.9 6.5s-2.9 4.4-2.9 4.4"/><path fill="none" stroke="#FFF" stroke-linecap="round" stroke-linejoin="round" stroke-miterlimit="10" stroke-width="2.476" d="M330.8 39.6V90s.3 7.7-8.7 7.7"/><path fill="none" stroke="#FFF" stroke-linecap="round" stroke-linejoin="round" stroke-miterlimit="10" stroke-width="1.897" d="M325.7 43.3l4.9-4.7h.2l4.8 4.7M330 2.9c.1 0 2.9 1.1 2.9 4.4 0 3.3-2.9 3.3-2.9 6.5 0 3.3 2.9 3.3 2.9 6.5 0 3.3-2.9 3.3-2.9 6.5s2.9 4.4 2.9 4.4"/><path fill="none" stroke="#FFF" stroke-linecap="round" stroke-linejoin="round" stroke-miterlimit="10" stroke-width="2.476" d="M316 39.6V90s.3 7.7-8.7 7.7"/><path fill="none" stroke="#FFF" stroke-linecap="round" stroke-linejoin="round" stroke-miterlimit="10" stroke-width="1.897" d="M311 43.3l4.9-4.7h.2l4.8 4.7M315.3 2.9c.1 0 2.9 1.1 2.9 4.4 0 3.3-2.9 3.3-2.9 6.5 0 3.3 2.9 3.3 2.9 6.5 0 3.3-2.9 3.3-2.9 6.5s2.9 4.4 2.9 4.4"/></svg>