<svg xmlns="http://www.w3.org/2000/svg" width="200" height="106.3" viewBox="0 0 200 106.3"><path fill="#8FC0E4" d="M97.6 13.9c-.5 0-1-.2-1.4-.5L88.7 7c-.9-.8-1-2.1-.2-3l2.1-2.5c.4-.4.9-.7 1.4-.7.6 0 1.1.1 1.5.5l7.5 6.4c.9.8 1 2.1.2 3l-2.1 2.5c-.4.4-.9.7-1.4.7h-.1zM92.3 2.1c-.2 0-.4.1-.5.2l-2.1 2.5c-.3.3-.2.7.1 1l7.5 6.4c.1.1.3.2.5.2s.4-.1.5-.2l2.1-2.5c.3-.3.2-.7-.1-1l-7.5-6.4c-.2-.1-.3-.2-.5-.2zM114.1 27.7c-.5 0-1-.2-1.4-.5l-7.5-6.4c-.9-.8-1-2.1-.2-3l2.1-2.5c.4-.4.9-.7 1.4-.7.6 0 1.1.1 1.5.5l7.5 6.4c.9.8 1 2.1.2 3l-2.1 2.5c-.3.5-.9.7-1.5.7zM108.8 16s-.1 0 0 0c-.2 0-.4.1-.5.2l-2.1 2.5c-.3.3-.2.7.1 1l7.5 6.4c.3.3.7.2 1-.1l2.1-2.5c.3-.3.2-.7-.1-1l-7.5-6.4c-.2-.1-.4-.1-.5-.1zM80 101.2c-.4 0-.7-.3-.7-.7V38.9c0-.4.3-.7.7-.7s.7.3.7.7v61.6c0 .4-.3.7-.7.7z"/><path fill="#FFF" d="M17.9 105.4c-.6 0-1.2-.5-1.2-1.2v-56c0-.6.5-1.2 1.2-1.2s1.2.5 1.2 1.2v56c0 .7-.5 1.2-1.2 1.2zM60.7 105.4c-.6 0-1.2-.5-1.2-1.2v-56c0-.6.5-1.2 1.2-1.2s1.2.5 1.2 1.2v56c0 .7-.5 1.2-1.2 1.2zM179.6 105.9c-.6 0-1.2-.5-1.2-1.2V91.1c0-.6.5-1.2 1.2-1.2s1.2.5 1.2 1.2v13.6c0 .6-.5 1.2-1.2 1.2z"/><path fill="#FFF" d="M16.8 74.6H146v15.5H16.8z"/><path fill="#FFF" d="M16.8 89.7h124.6v5.6H16.8z"/><path fill="#8FC0E4" d="M139 88.2h43.7v7.1H139zM16.8 87.8h34.8v1.4H16.8z"/><path fill="#FFF" d="M60.7 62.7c-.6 0-1.2-.5-1.2-1.2 0-6.3-9.1-11.5-20.2-11.5s-20.2 5.2-20.2 11.5c0 .6-.5 1.2-1.2 1.2s-1.2-.5-1.2-1.2c0-7.8 9.9-13.8 22.6-13.8s22.6 6.1 22.6 13.8c0 .6-.5 1.2-1.2 1.2z"/><path fill="#FFF" d="M33.4 74.8H32c0-.1.3-9.7 9.3-11.6 9.6-2.1 17 2.8 18.3 3.8l-.8 1c-1.3-.9-8.2-5.5-17.2-3.6-8 1.8-8.2 10.3-8.2 10.4z"/><path fill="#FFF" d="M38.6 74.8s3.5-1.9 3.1-7.4c0 0 5.6-.8 8.6.9 3 1.6 3.7 4.7 0 6.9l-11.7-.4z"/><path fill="#8FC0E4" d="M50.6 89.2V77s.9-13.9 14.1-15.4c6.7-.2 14.1 1.9 14.1 1.9s8.1 1.9 14.7-.8 23.5-10 46.2-2.7l32.4 8.2s10.5 1.7 10.5 13.2v7.8h-132z"/><circle cx="17.9" cy="46.1" r="2.7" fill="#8FC0E4"/><circle cx="60.7" cy="45.6" r="2.7" fill="#8FC0E4"/><path fill="#061B30" d="M141.4 65h-23.5l8-10.4h21.8z"/><path fill="#FFF" d="M141.4 65.7h-23.5c-.3 0-.5-.2-.6-.4s-.1-.5.1-.7l8-10.3c.1-.2.3-.3.6-.3h21.8c.3 0 .5.1.6.4.1.2.1.5 0 .7L142 65.3c-.1.2-.3.4-.6.4zm-22-1.4H141l5.4-8.9h-20.2l-6.8 8.9z"/><path fill="#FFF" d="M129 56.2c-.1-.2-.2-.4-.2-.6-.1-.7.1-1.4.4-2 .3-.7.5-1.4 1-2 .2-.3.4-.5.6-.7.5-.4 1.1-.7 1.7-.8.5-.1 1.1-.1 1.6-.2l3.9-.1-.6 3.2s-.4 5.4-6.4 4.5c-.9-.2-1.7-.6-2-1.3z"/><path fill="#8FC0E4" d="M138 49.8l5.7-.4-1.3 6.2-5.8-.3z"/><path fill="#FFF" d="M128 65.4l-1-2.9c-.3-.8-.7-2.3-1.9-2.1-1.3.3-.7 2.1-.3 3 .8 1.8-.2.9-.2.9l-5.2.1 2.1-3.4s3-2.1.1-1.7c-2.4.4-6.1 3.9-3.7 8 2.5 4.1 10.8 3.2 10.8 3.2l-.7-5.1z"/><path fill="#061B30" d="M119.7 83l3.1 21.9h12.3c2.8-6.1 5.7-12.8 2.6-19.4-.8-1.6-2-3.1-3.5-4.1-7.8-5.1-.4 0-.4 0L119.7 83z"/><path fill="#FFF" d="M135.2 105.6h-12.3c-.4 0-.6-.3-.7-.6L119 83.1c0-.2 0-.4.1-.5.1-.2.3-.2.5-.3l12.3-1.4c-2.2-1.6-2.1-1.6-1.8-2.2.4-.6.4-.6 4.5 2.1 1.6 1 3 2.7 3.8 4.4 3.3 7 .2 13.9-2.6 20-.1.3-.3.4-.6.4zm-11.7-1.4h11.3c2.6-5.7 5.4-12.2 2.4-18.4-.7-1.5-1.8-2.9-3.2-3.8h-.1l-13.4 1.6 3 20.6z"/><path fill="#FFF" d="M128.2 63.9v8.8s-9.1 1.5-9.1 10.9h34s8.5-.4 9.9-13.7 2.8-19.4-5.8-38.5c0 0-12.5 5.9-14.3 20.4l-2.7 12.1h-12z"/><path fill="#061B30" d="M157.8 49.4c-2.7.1-5.6 0-7.8 1.6-2.4 1.6-3.2 5.1-2.5 7.8.4 1.6 1.6 3.1 2.8 4.2 2.9 2.5 6.7 3.4 8.8 3.8 2.1.3 8.1.4 12.2-3.3 4.2-3.7 3.5-8.8 3.5-8.8s-.7-5.1-6.2-5.3c-3.6-.3-7.2-.1-10.8 0z"/><path fill="#FFF" d="M161.2 67.5c-.9 0-1.6-.1-2.2-.2-1.7-.2-5.9-1.1-9.2-3.9-1.5-1.3-2.6-2.9-3-4.5-.7-2.7 0-6.6 2.7-8.5 2.3-1.6 5.2-1.7 7.7-1.7l1.9-.1c3.1-.1 6.4-.2 9.6 0 6 .3 6.8 5.9 6.9 5.9 0 .2.6 5.5-3.8 9.4-3.2 2.9-7.5 3.6-10.6 3.6zm-3.4-17.4h-.5c-2.4.1-5 .1-6.9 1.5-2.2 1.5-2.8 4.7-2.2 7 .4 1.3 1.3 2.7 2.6 3.8 3 2.6 6.9 3.4 8.5 3.6.3 0 7 1 11.6-3.1 3.8-3.4 3.3-8.1 3.3-8.2 0-.2-.7-4.5-5.5-4.7-3.2-.1-6.4 0-9.5 0l-1.4.1z"/><path fill="#061B30" d="M152.4 73.7l-24-.2c-.4 0-.7-.3-.7-.7v-9.4c0-.4.3-.7.7-.7s.7.3.7.7V72l22.7.2 1.9-9.1c.1-.4.4-.6.8-.5.4.1.6.5.5.8l-2 9.6c0 .4-.3.7-.6.7z"/><path fill="#FFF" d="M146.3 105.9c-.4 0-.7-.3-.7-.7V88.7c0-.4.3-.7.7-.7s.7.3.7.7v16.5c0 .4-.4.7-.7.7z"/><path fill="#061B30" d="M161.1 86.2c0 1.4-1.1 2.5-2.5 2.5h-22.3c-1.4 0-2.5-1.1-2.5-2.5V86c0-1.4 1.1-2.5 2.5-2.5h22.3c1.4 0 2.5 1.1 2.5 2.5v.2z"/><path fill="#FFF" d="M157 105.7c-.4 0-.7-.3-.7-.7 0-1.4-3.9-3.3-10.2-3.3S136 103.6 136 105c0 .4-.3.7-.7.7s-.7-.3-.7-.7c0-3.1 6-4.7 11.6-4.7s11.6 1.7 11.6 4.7c-.1.4-.4.7-.8.7z"/><path fill="#FFF" d="M136.9 102.5l-.9 3.1h-19.6s.2-2.7 3.3-3c3-.3 17.2-.1 17.2-.1z"/><path fill="#FFF" d="M130.3 105.8l-1.4-.2 1.6-10.9s.7-8.4-2.7-11.7l1-1c3.9 3.8 3.1 12.5 3.1 12.9l-1.6 10.9z"/><path fill="#061B30" d="M154.6 85.9h-.2c-.4-.1-.6-.5-.4-.9l7.8-22.5c.1-.4.5-.6.9-.4.4.1.6.5.4.9l-7.8 22.5c-.1.3-.4.4-.7.4z"/><ellipse cx="147.7" cy="28.9" fill="#FFF" rx="6.4" ry="6.4" transform="matrix(.05737 -.9984 .9984 .05737 110.379 174.716)"/><path fill="#061B30" d="M148.1 25.2l-7.6.6s.5-11.1 11.2-9.5c6.4 1 8.6 11.3 8.6 11.3s1 3.1-2.1 4.9c-3.1 1.8-7 3.8-7 3.8l-3.1-11.1z"/><path fill="#FFF" d="M151.2 37c-.1 0-.2 0-.3-.1-.2-.1-.3-.3-.4-.5l-3-10.6-7 .5c-.2 0-.4-.1-.5-.2-.1-.1-.2-.3-.2-.5s.3-5.4 3.9-8.3c2.1-1.7 4.8-2.3 8.1-1.8 6.8 1.1 9.1 11.4 9.2 11.9.4 1.2.4 4-2.5 5.7-3.1 1.8-7 3.8-7 3.9h-.3zm-3.1-12.5c.3 0 .6.2.7.5l2.9 10.3c1.3-.7 4-2.1 6.2-3.4 2.5-1.5 1.8-4 1.8-4.1 0-.2-2.2-9.9-8-10.8-2.9-.5-5.3 0-7 1.5-2.3 1.9-3.1 5.1-3.3 6.5l6.7-.5z"/><ellipse cx="141.9" cy="28.3" fill="#FFF" rx="1.5" ry="1.9" transform="rotate(-13.38 141.91 28.311)"/><path fill="#8FC0E4" d="M142 30.9c-1 0-2-.8-2.3-2-.3-1.4.4-2.7 1.6-3 .6-.1 1.2 0 1.8.4.5.4.8.9 1 1.6.2.6.1 1.3-.2 1.9-.3.6-.8 1-1.4 1.2-.2-.2-.3-.1-.5-.1zm-.3-3.7h-.1c-.4.1-.7.7-.5 1.3.1.6.6 1 1 .9.2-.1.4-.3.4-.4.1-.3.2-.6.1-.9-.1-.3-.3-.6-.5-.8 0 0-.2-.1-.4-.1z"/><path fill="#FFF" d="M143.8 28.4l4.9-1.4"/><path fill="#8FC0E4" d="M143.8 29.1c-.3 0-.6-.2-.7-.5-.1-.4.1-.8.5-.9l5-1.5c.4-.1.8.1.9.5s-.1.8-.5.9l-5 1.5h-.2zM76.8 33.3c-.1 0-.2 0-.3-.1L37.9 16.3c-.4-.2-.5-.6-.4-.9.2-.4.6-.5.9-.4l38.7 17c.4.2.5.6.4.9-.2.2-.5.4-.7.4zM96.4 16.4l-59.6-3.6c-.4 0-.7-.4-.7-.7s.3-.7.7-.7L96.5 15c.4 0 .7.4.7.7-.1.4-.4.7-.8.7zM108.7 7.4C103.5 3.8 98 2.7 95.9 5l-3.8 4.6 7.1 5c.8.8 1.8 1.6 2.8 2.3 1.1.8 2.2 1.4 3.2 1.9l6.4 4.4L115 19c2-2.7-.9-7.8-6.3-11.6z"/><ellipse cx="105.7" cy="12.2" fill="#8FC0E4" rx="2.3" ry="4.3" transform="rotate(-81.611 105.648 12.186)"/><ellipse cx="101.8" cy="16.3" fill="#FFF" rx="5.8" ry="11.9" transform="rotate(-54.899 101.784 16.34)"/><path fill="#8FC0E4" d="M35.2 18.3c-2.4 0-4.4-2-4.4-4.4s2-4.4 4.4-4.4c2.4 0 4.4 2 4.4 4.4s-2 4.4-4.4 4.4zm0-5.9c-.9 0-1.5.7-1.5 1.5s.7 1.5 1.5 1.5 1.5-.7 1.5-1.5-.6-1.5-1.5-1.5zM79.4 39.4c-2.4 0-4.4-2-4.4-4.4s2-4.4 4.4-4.4 4.4 2 4.4 4.4-2 4.4-4.4 4.4zm0-5.9c-.9 0-1.5.7-1.5 1.5s.7 1.5 1.5 1.5 1.5-.7 1.5-1.5-.6-1.5-1.5-1.5zM67.5 105.6h25.1c0-3.8-5.6-7.3-12.5-7.3s-12.4 3.3-12.4 7.3"/><g><path fill="#FFF" d="M139.4 88.7h43.2v1.4h-43.2z"/></g><g><path fill="#FFF" d="M132.2 54.7l3.2-7.8"/><path fill="#8FC0E4" d="M132.2 55.4c-.1 0-.2 0-.3-.1-.4-.1-.5-.6-.4-.9l3.2-7.8c.1-.4.6-.5.9-.4.4.1.5.6.4.9l-3.2 7.8c0 .3-.3.5-.6.5z"/></g><g><path fill="#061B30" d="M44.4 71.9c-.1 0-.2 0-.3-.1-.2-.2-.2-.5-.1-.7.9-1.1.2-2 .1-2.1-.2-.2-.1-.5.1-.7s.5-.1.7.1c.4.5 1 1.9-.2 3.3 0 .2-.1.2-.3.2z"/></g><g><ellipse cx="49.2" cy="72.5" fill="#061B30" rx=".9" ry=".6" transform="rotate(-80.979 49.24 72.545)"/></g><g><path fill="#061B30" d="M81.1 63.9s-7.3-1.7-7.7-1.5c-1.2.4-3.6 1.4-4.7 1.9-2.6 1.4-5.2 3.8-6.3 6.6-1.1 3-1 5.7-1 8.9v9.5h6.1v-1.2-7.3c0-2.7-.3-5.4.5-8.1 1.5-5.1 8.3-7.6 13.1-8.8"/></g><path fill="#8FC0E4" d="M193.9 106.3H6.1c-.6 0-1.1-.5-1.1-1s.5-1 1.1-1h187.7c.6 0 1.1.5 1.1 1s-.4 1-1 1z"/></svg>