<svg xmlns="http://www.w3.org/2000/svg" width="200" height="147" viewBox="0 0 200 147"><path fill="#8FC0E4" d="M103.6 24.6c9.7-.6 16.5 7.8 25.1 10.8 3 1.1 6.2 1.4 9.3 1.5l13.6.1-.2 107.5s-.1.7-.8 1.6l-99.9-.6s-2.7.4-2.7-2.7V41.3h8.9s10.8.2 14.7-1.3c3.9-1.5 6.6-3.2 13.3-9s17.4-6.4 18.3-6.5l.4.1z"/><path fill="#FFF" d="M151.9 43.1h-16.3c-3.1 0-6.4-1.8-9.3-3.1-8.1-3.9-14.2-11.7-23.7-12-8.3-.3-14.9 2.4-21.4 7.5-2.9 2.3-6 3.8-9.4 5.1-4.4 1.7-9.7 1.3-14.3 1.3 3.5 0-9.3 0-9-.1 0 0-.3-25.3-.3-28.2.1-2.8 2.6-2 2.6-2H149s3.1.5 2.8 3.4.1 28.1.1 28.1z"/><path fill="#061B30" d="M151.9 132.7v10.9c0 1.8-1.5 3.3-3.3 3.3H51.3c-1.8 0-3.3-1.5-3.3-3.3v-10.9c0-.5.2-1 .5-1.4.2-.3.6-.6.9-.8.4-.2.9-.4 1.4-.4h98.4c.5 0 .9.1 1.3.3.2.1.3.2.5.3.5.5.9 1.2.9 2zM86.9 88.8c-.1 0-.3 0-.4-.1-.3-.2-.4-.7-.2-1 4.5-6.2 5.7-11.6 5.9-15 .2-3.7-.7-6-.7-6-.1-.4 0-.8.4-.9.4-.1.8 0 .9.4.2.4 3.7 9.9-5.4 22.4-.1.1-.3.2-.5.2zM78.6 117.6c-.2 0-.4-.1-.6-.3-5.4-7.1-5.8-14-5.3-18.4.6-4.8 2.5-7.9 2.6-8.1.2-.3.6-.4 1-.2.3.2.4.6.2 1-.3.5-7.1 12 2.6 24.9.2.3.2.8-.1 1-.1 0-.2.1-.4.1zM102.5 104.7c-.3 0-.5-.1-.6-.4-.2-.3-.1-.8.3-1 .1-.1 12.4-7 11-27.9 0-.4.3-.7.7-.8.4 0 .7.3.8.7 1.5 21.9-11.2 29-11.8 29.2-.2.2-.3.2-.4.2zM135 114c-.1 0-.2 0-.4-.1-15.2-8.7-12.2-24.4-12.2-24.6.1-.4.4-.6.8-.6.4.1.6.4.6.8-.1.6-2.8 14.9 11.5 23.1.3.2.5.6.3 1-.1.3-.4.4-.6.4zM48 41.2l.5 13.6H60l14.5-2.1 13.2-8.2 14.4-3 17.3 6.7 10.8 4.9 21.2 1.3V43.1l-18.5-1.9-26.2-8.5-19.8 2.6-23.4 5z"/><path fill="#FFF" d="M149 10.7H50.9c-1.9 0-3.4 1.5-3.4 3.4v129.6c0 1.9 1.5 3.4 3.4 3.4H149c1.9 0 3.4-1.5 3.4-3.4V14.1c-.1-1.9-1.6-3.4-3.4-3.4zM50.9 145.6c-.3 0-.5-.1-.7-.2-.7-.3-1.2-1-1.2-1.8V14.1c0-1.1.9-2 2-2h98c1.1 0 2 .9 2 2v129.6c0 1.1-.9 2-2 2H50.9z"/><path fill="#8FC0E4" d="M77.7 34.8c-1.8-.3-3.4-1-4.2-2.9-2.6-6.2-4.1-14.1-2.1-20.6.7-2.4 2.4-4.7 4.6-5.8 3.5-1.7 7.6-.3 11.1.5 3.4.7 6.8 1 10.3.6 5.5-.6 10.9-1.9 16.3-2.6 4.5-.6 10.9-1.7 14.8 1.5 5.9 4.7 1.5 11.2 1.5 17.2.1 4.5 2.3 10 .7 14.4-1.3 3.5-4.9 0-7.1-.1-4.1-.2-8.1-.3-12.2-.5-9.1-.4-18.3-1-27.4-1.6-1.8 0-4.2.2-6.3-.1z"/><path fill="#FFF" d="M73 36.9c.1-.8.1-1.7 0-2.5-.1-1.1-.9-1.9-1.7-2.6-1.5-1.5-.3-3 1.1-4 .8-.5 1.6-.7 2.5-.4 0 0 4.1 1.9 3.5 7.4-.5 5.7-5.4 2.1-5.4 2.1z"/><path fill="#8FC0E4" d="M76 38.8c-1.6 0-3.2-1.1-3.4-1.3l-.3-.3.1-.4c.1-.7.1-1.5 0-2.3-.1-.9-.8-1.6-1.5-2.2-.9-.9-1-1.7-.9-2.2.1-1.3 1.3-2.2 2.2-2.8 1-.6 2-.8 3.1-.4h.1c.2.1 4.5 2.2 3.9 8.2-.2 1.8-.8 3-1.9 3.5-.6.1-1 .2-1.4.2zm-2.3-2.2c.7.4 2 1 2.9.6.6-.3 1-1.1 1.1-2.4.5-4.8-2.8-6.6-3.1-6.7-.6-.2-1.2-.1-1.8.3-.9.6-1.5 1.2-1.5 1.8 0 .4.1.7.5 1.1.8.8 1.7 1.7 1.9 3 .1.8.1 1.6 0 2.3z"/><ellipse cx="93.1" cy="19.1" fill="#FFF" rx="9" ry="9.2"/><path fill="#061B30" d="M90.9 17.7c0 .2-2.9.5-3.1.5-1.3 0-3-.4-3.3-1.8-.4-1.6 1.2-3.7 2.3-4.6 1.3-1 3.4-1.8 5-2 7.4-.8 9.2 4.6 9.6 6.1s2.8 11.6 2.8 11.6l-10.6 1.7c.2-.1-2.7-11.5-2.7-11.5z"/><path fill="#FFF" d="M84.7 21.6c-.1.7-.2 1.4-.4 2-.1.3-.1.7-.2 1 0 .3-.1.6 0 .8.3.4.8.1 1.2-.1.4-.2.7-.4 1.1-.7l.3-.2-2-2.8z"/><path fill="#061B30" d="M86.9 21.6c-.2 0-.4-.1-.5-.3-.1-.2.1-.5.3-.6.1 0 1.4-.4 1.2-1.6 0-.3.1-.5.4-.5.3 0 .5.1.5.4.2 1.6-1.2 2.4-1.9 2.6.1 0 0 0 0 0z"/><g><path fill="#FFF" d="M61.9 58.2H48.5v-6.6h11c3 0 5.8.1 8.6-.3 3.4-.5 7.3-2.3 10.6-4.9 7.4-5.8 14.9-8.4 23.5-8.1 7.4.2 12.7 3.7 18 7.1 2.4 1.5 4.6 3 7.1 4.1 2.2 1.1 5 1.7 7.8 1.7h16.3v6.6H135c-3.8 0-7.6-.8-10.7-2.3-2.8-1.3-5.3-3-7.8-4.6-4.9-3.1-9.1-5.8-14.6-6-7.1-.2-13 1.8-19.2 6.7-4.3 3.4-9.2 5.6-13.8 6.2-2.3.3-4.7.4-7 .4z"/></g><g><path fill="#061B30" d="M135.5 37.5c-3.1 0-6.4-.6-9.3-2-8.1-3.9-14.2-10.6-23.7-10.9-4.1-.1-8.3.5-12.1 2-3.5 1.4-6.5 3.7-9.6 5.7-3.4 2.2-7.2 3.9-11.1 4.8-4 1-8.2.8-12.3.8h-8.5v7h6c4.5 0 12.9.5 23-3.5-.2.9.4 1.3 2.8.2 5.3-2.5 21.6-8.2 31.7-3.6 3.8 1.7 7.1 2.7 9.4 3 1.6 1.1 3.1 2 4.5 2.7 8.8 4.1 24.6 1.4 24.6 1.4v-7.7c0 .1-4.1.1-15.4.1z"/></g></svg>