<svg xmlns="http://www.w3.org/2000/svg" id="Layer_1" viewBox="0 0 105 30"><style>.st0{fill:#fff}.st1,.st2{fill-rule:evenodd;clip-rule:evenodd;fill:#f8991d}.st2{fill:#010101}.st3{fill:#273376}.st4{fill:#767677}.st5{fill:#cdcccc}.st6{fill:none}.st7{fill:#dc4537}.st8{fill:#557ebf}.st9{fill:#f3b41b}.st10{fill:#c1912d}.st11{fill:#0f9d58}.st12{fill:#0d7f47}</style><path d="M62.1 24.6c-4.6 3.4-11.4 5.3-17.2 5.3-8.1 0-15.5-3-21-8-.4-.4 0-.9.5-.6 6 3.5 13.4 5.6 21 5.6 5.2 0 10.8-1.1 16-3.3.8-.4 1.5.5.7 1z" class="st1"/><path d="M64.1 22.4c-.6-.8-3.9-.4-5.4-.2-.5.1-.5-.3-.1-.6 2.7-1.9 7-1.3 7.5-.7.5.6-.1 5-2.6 7.1-.4.3-.7.1-.6-.3.5-1.4 1.8-4.5 1.2-5.3z" class="st1"/><path d="M58.7 8.4V6.6c0-.3.2-.5.5-.5h8.1c.3 0 .5.2.5.5v1.6c0 .3-.2.6-.6 1.1l-4.2 6c1.6 0 3.2.2 4.6 1 .3.2.4.4.4.7v2c0 .3-.3.6-.6.4-2.5-1.3-5.8-1.5-8.6 0-.3.2-.6-.2-.6-.4v-1.8c0-.3 0-.8.3-1.2l4.9-7h-4.3c-.1-.1-.4-.3-.4-.6zM29.1 19.8h-2.5c-.2 0-.4-.2-.4-.4V6.7c0-.3.2-.5.5-.5H29c.2 0 .4.2.4.4v1.7c.6-1.6 1.7-2.4 3.3-2.4 1.5 0 2.5.7 3.2 2.4.6-1.6 2-2.4 3.4-2.4 1 0 2.2.4 2.9 1.4.8 1.1.6 2.6.6 4v8c0 .3-.2.5-.5.5h-2.5c-.2 0-.4-.2-.4-.5v-6.7c0-.5 0-1.9-.1-2.4-.2-.9-.7-1.1-1.5-1.1-.6 0-1.2.4-1.5 1-.3.6-.2 1.7-.2 2.4v6.7c0 .3-.2.5-.5.5h-2.5c-.2 0-.4-.2-.4-.5v-6.7c0-1.4.2-3.5-1.5-3.5-1.8 0-1.7 2-1.7 3.5v6.7c0 .4-.2.6-.4.6zM74.8 5.9c3.7 0 5.7 3.2 5.7 7.2 0 3.9-2.2 7-5.7 7-3.6 0-5.6-3.2-5.6-7.1 0-4 2-7.1 5.6-7.1zm0 2.6c-1.8 0-1.9 2.5-1.9 4 0 1.6 0 4.9 1.9 4.9s2-2.7 2-4.3c0-1.1 0-2.4-.4-3.4-.2-.9-.8-1.2-1.6-1.2zm10.4 11.3h-2.5c-.2 0-.4-.2-.4-.5V6.6c0-.2.2-.4.5-.4h2.3c.2 0 .4.2.4.4v1.9c.7-1.7 1.7-2.6 3.4-2.6 1.1 0 2.2.4 2.9 1.5.6 1 .6 2.7.6 4v8c0 .2-.2.4-.5.4h-2.5c-.2 0-.4-.2-.4-.4v-6.9c0-1.4.2-3.4-1.5-3.4-.6 0-1.2.4-1.4 1-.3.8-.4 1.6-.4 2.4v6.8c0 .3-.2.5-.5.5zm-32.9-6.1c0 1 0 1.8-.5 2.6-.4.7-1 1.1-1.7 1.1-.9 0-1.5-.7-1.5-1.8 0-2.1 1.9-2.5 3.7-2.5v.6zm2.5 6c-.2.1-.4.2-.6.1-.8-.7-1-1-1.4-1.6-1.4 1.4-2.3 1.8-4.1 1.8-2.1 0-3.7-1.3-3.7-3.9 0-2 1.1-3.4 2.6-4 1.3-.6 3.2-.7 4.7-.9v-.3c0-.6 0-1.3-.3-1.8s-.9-.6-1.4-.6c-.9 0-1.8.5-2 1.5 0 .2-.2.4-.4.5l-2.4-.3c-.2 0-.4-.2-.4-.5.6-2.9 3.2-3.8 5.5-3.8 1.2 0 2.8.3 3.7 1.2 1.2 1.1 1.1 2.6 1.1 4.3v3.9c0 1.2.5 1.7.9 2.3.2.2.2.5 0 .7-.5.2-1.3 1-1.8 1.4zm-35-6c0 1 0 1.8-.5 2.6-.4.7-1 1.1-1.7 1.1-.9 0-1.5-.7-1.5-1.8 0-2.1 1.9-2.5 3.7-2.5v.6zm2.5 6c-.2.1-.4.2-.6.1-.8-.7-1-1-1.4-1.6-1.4 1.4-2.3 1.8-4.1 1.8-2.1 0-3.7-1.3-3.7-3.9 0-2 1.1-3.4 2.6-4 1.3-.6 3.2-.7 4.7-.9v-.3c0-.6 0-1.3-.3-1.8s-.9-.6-1.4-.6c-.9 0-1.8.5-2 1.5 0 .2-.2.4-.4.5l-2.4-.3c-.2 0-.4-.2-.4-.5.6-2.9 3.2-3.8 5.5-3.8 1.2 0 2.8.3 3.7 1.2 1.2 1.1 1.1 2.6 1.1 4.3v3.9c0 1.2.5 1.7.9 2.3.2.2.2.5 0 .7-.4.2-1.3 1-1.8 1.4z" class="st2"/></svg>