<svg xmlns="http://www.w3.org/2000/svg" viewBox="0 0 105 30"><style>.st3{fill:#273376}</style><path d="M37.7 9.6c-3.8 0-6.6 2.7-6.6 6.6 0 3.9 2.8 6.6 6.6 6.6 1.8 0 3.2-.8 3.8-1.5v1.3h3V9.7h-3V11c-.6-.6-2.1-1.4-3.8-1.4m.1 10.4c-2.2 0-3.9-1.7-3.9-3.9s1.7-3.9 3.9-3.9c2.1 0 3.8 1.7 3.8 3.9S39.9 20 37.8 20M63.2 9.6c-1.7 0-3 .7-3.9 1.5V9.7h-2.9v19.6l2.9-.3v-7.8c.8.9 2.2 1.5 3.9 1.5 3.9 0 6.5-2.6 6.5-6.6 0-3.9-2.6-6.5-6.5-6.5M63.1 20c-2.3 0-3.8-1.6-3.8-3.9 0-2.2 1.5-3.9 3.8-3.9s3.8 1.6 3.8 3.9-1.5 3.9-3.8 3.9M91.9 9.6c-1.8 0-2.8.7-3.4 1.5V9.7h-2.9v12.9h2.9v-7.1c0-1.9 1.3-3.2 3.1-3.2h.3V9.6zm-14.5 0c-3.7 0-6.7 2.9-6.7 6.6 0 3.7 3 6.6 6.8 6.6 3.1 0 5.7-1.7 6.5-4.1h-3.4c-.4.8-1.5 1.4-3.1 1.4-1.9 0-3.4-1.3-3.7-2.9h10.3c.1-.3.1-.6.1-1-.1-3.7-3-6.6-6.8-6.6m-3.5 5c.4-1.3 1.8-2.4 3.5-2.4s3.1 1.1 3.5 2.4h-7zm-23.3-2.5c-.6 0-1.2.3-1.2 1 0 .8.9 1.1 2.4 1.7 2.2.8 3.2 1.8 3.2 3.8 0 2-1.7 4.2-4.7 4.2s-4.5-2.2-4.6-4.1h2.8c.2.8.8 1.5 1.8 1.5 1.1 0 1.7-.7 1.7-1.6 0-.6-.2-1.2-2-1.7-2-.5-3.4-1.6-3.4-3.7 0-1.9 1.7-3.5 4-3.5 2 0 3.2 1.4 3.8 2.3L52 13c-.4-.6-.9-.9-1.4-.9" class="st3"/><path d="M22.4 4.3c-5.3 0-9.3 4.1-9.3 9.2s4.1 9.2 9.3 9.2c3.3 0 6.5-1.8 7.9-4.4l-2.7-1.5c-1 1.9-2.9 3-5.2 3-1.7 0-3.3-.7-4.3-1.8-1.2-1.2-1.8-2.8-1.8-4.5 0-1.7.6-3.2 1.8-4.5 1.1-1.2 2.7-1.8 4.3-1.8 1.8 0 2.9.6 3.6 1.2.8.6 1.7 1.1 3 1.1 2.6 0 3.7-2.1 3.9-3.2L30 5.7c0 .1-.2.9-1.1.9-.4 0-.6-.1-1.2-.6-1-.6-2.4-1.7-5.3-1.7" class="st3"/></svg>