<svg xmlns="http://www.w3.org/2000/svg" width="200" height="130.5" viewBox="0 0 200 130.5"><path fill="#8FC0E4" d="M174.5 97.8l-6.8 5.6-.2-5.5z"/><path fill="#FFF" d="M151.5 128.7h-42.7v-1.2h42.7c8.6 0 15.6-12.3 15.6-27.3s-7-27.3-15.6-27.3h-42.7v-1.2h42.7c9.3 0 16.8 12.8 16.8 28.6s-7.5 28.4-16.8 28.4z"/><path fill="#8FC0E4" d="M75 26.3c-.9 0-1.8-.4-2.4-1.1-1.2-1.4-1-3.6.5-4.9 1.5-1.3 3.7-1.3 5 .1 1.2 1.4 1 3.6-.5 4.9-.8.7-1.7 1-2.6 1zm.6-5.7c-.6 0-1.2.2-1.7.7-1 .9-1.2 2.3-.4 3.2.8.9 2.2.9 3.2 0s1.2-2.3.4-3.2c-.4-.5-.9-.7-1.5-.7zM73 117h36.5v11.6H73z"/><path fill="#FFF" d="M87.1 61h1.2v14.5h-1.2z"/><path fill="#FFF" d="M80.5 67.6h9.1v1.2h-9.1z"/><path fill="#FFF" d="M82.4 79.5c-.1-.1-1.4-2.9-2.2-6.7-1.2-5.1-1-9.2.6-12.3l1.1.6c-3.5 6.8 1.6 17.8 1.7 17.9l-1.2.5z"/><path fill="#8FC0E4" d="M110.7 72.9h-.2c-.3-.1-.5-.5-.4-.8l6.4-16.5H94.2c-.3 0-.6-.3-.6-.6s.3-.6.6-.6h23.2c.2 0 .4.1.5.3.1.2.1.4.1.6l-6.8 17.3c-.1.2-.3.3-.5.3z"/><path fill="#FFF" d="M38.7 128.4c-7.5 0-13.6-10.4-13.6-23.1s6.1-23.1 13.6-23.1 13.6 10.4 13.6 23.1-6.1 23.1-13.6 23.1zm0-44.9c-6.8 0-12.3 9.8-12.3 21.8s5.5 21.8 12.3 21.8S51 117.4 51 105.4s-5.5-21.9-12.3-21.9z"/><ellipse cx="109.1" cy="100.2" fill="#061B30" rx="16.2" ry="28.1"/><path fill="#8FC0E4" d="M109.1 128.9c-9.3 0-16.8-12.9-16.8-28.7s7.5-28.7 16.8-28.7 16.8 12.9 16.8 28.7-7.5 28.7-16.8 28.7zm0-56.2c-8.6 0-15.6 12.3-15.6 27.4s7 27.4 15.6 27.4 15.6-12.3 15.6-27.4-7-27.4-15.6-27.4z"/><path fill="#FFF" d="M53.9 128.7H38.2v-1.2h15.7c6.8 0 12.3-9.8 12.3-21.8s-5.5-21.8-12.4-21.8l-15.4-.3v-1.2l15.4.3c7.5 0 13.6 10.3 13.6 23s-6.1 23-13.5 23z"/><ellipse cx="38.6" cy="105.5" fill="#8FC0E4" rx="3.9" ry="7.4"/><path fill="#8FC0E4" d="M74.3 87.6v20.3h46.9l13.2-10.2V87.5z"/><path fill="#8FC0E4" d="M74.7 78.9V61.4H63.1V49.6L38.2 66.3l-.3 13.4h15l7.3 20.3h28.6V78.9z"/><path fill="#8FC0E4" d="M62.4 51.3c-.3 0-.6-.3-.6-.6v-44c0-.3.3-.6.6-.6s.6.3.6.6v44c.1.3-.2.6-.6.6z"/><path fill="#8FC0E4" d="M61.8 7.1v-.3C61.8 3 64.9 0 68.6 0h17.1c3.8 0 6.8 3.1 6.8 6.8V7"/><path fill="#8FC0E4" d="M110 7.1h-1.2v-.3c0-3.4-2.1-5.6-5.6-5.6H86.1c-3.3 0-6.8 2.1-6.8 5.6V7H78v-.2C78 3.5 81 0 86.1 0h17.1c4.1 0 6.8 2.7 6.8 6.8v.3z"/><path fill="#8FC0E4" d="M78 5.8h31.1V7H78z"/><path fill="#061B30" d="M134.2 88.2H174v9.1h-39.8z"/><path fill="#8FC0E4" d="M174.1 97.9h-39.8c-.3 0-.6-.3-.6-.6v-9.1c0-.3.3-.6.6-.6h39.8c.3 0 .6.3.6.6v9.1c0 .4-.3.6-.6.6zm-39.2-1.2h38.6v-7.9h-38.6v7.9z"/><path fill="#061B30" d="M74.3 100H73V86.9c0-.3.3-.6.6-.6h15.1v1.2H74.3V100z"/><path fill="#8FC0E4" d="M86.7 51.5H63.1c-.3 0-.6-.3-.6-.6s.3-.6.6-.6h23.7c.3 0 .6.3.6.6s-.3.6-.7.6z"/><path fill="#8FC0E4" d="M86.9 61.2c-.3 0-.6-.3-.6-.6v-54c0-.3.3-.6.6-.6s.6.3.6.6v54c0 .3-.2.6-.6.6z"/><ellipse cx="83.2" cy="20.9" fill="#FFF" rx="6.3" ry="6.3" transform="rotate(-81.118 83.21 20.912)"/><path fill="#FFF" d="M79.5 24.2l4.8.2v5s5.4 2.2 5.1 7.4S89 42 89 42l8.2-2.9-.3 5-3.9 1.6s1 4-2.3 4.8c-3.3.8-1.8.3-1.8.3l6.6 3.8-3.2 6.7H69.7s-2.8-7.7 4.8-12.1L73.3 45c-.6-2-1.3-4.1-1.5-6.2-.1-1.4.1-2.9.6-4.2.6-1.7 1.5-3.3 2.9-4.3l1.5-.9c.5-.2 1.1-.4 1.7-.7.1 0 .3-.1.3-.2l.7-4.3z"/><path fill="#8FC0E4" d="M100.7 51.9c-.7 0-1.3-.2-1.9-.5-1.4-.8-2.1-2.3-2.2-4.4 0-1.9.6-4.1 1.7-6.2 1.1-2.1 2.7-3.7 4.4-4.7 1.8-1 3.5-1.2 4.9-.4 1.4.8 2.1 2.3 2.2 4.4 0 1.9-.6 4.1-1.7 6.2-1.1 2.1-2.7 3.7-4.4 4.7-1.1.6-2.1.9-3 .9zm5-15.4c-.7 0-1.5.3-2.4.7-1.5.9-2.9 2.4-3.9 4.2-1 1.9-1.6 3.8-1.5 5.6 0 1.6.6 2.8 1.5 3.3 1 .5 2.2.4 3.6-.4 1.5-.9 2.9-2.4 3.9-4.2 1-1.9 1.6-3.8 1.5-5.6 0-1.6-.6-2.8-1.5-3.3-.3-.2-.7-.3-1.2-.3z"/><ellipse cx="98.4" cy="42.7" fill="#FFF" rx="3.9" ry="3.5" transform="rotate(-66.773 98.428 42.679)"/><ellipse cx="107.3" cy="44.7" fill="#FFF" rx="3.9" ry="3.1" transform="rotate(-66.773 107.278 44.675)"/><path fill="#061B30" d="M77.1 16.5s-.9 3.4-.2 4.6c0 0 4.7 1.4 5.3-4.1l-5.1-.5z"/><path fill="#8FC0E4" d="M89.1 17.2c.5-3.1-2-6-5.5-6.5s-6.8 1.4-7.4 4.4l-.4 2.5s16.9 2.6 17 2.7c.5.1.9-.6.6-.9-.2-.3-.7-.5-1-.7l-3.3-1.5z"/><path fill="#061B30" d="M93.1 56.9c-.1 0-.2 0-.3-.1l-7.9-4.1c-.3-.2-.4-.5-.3-.8.2-.3.5-.4.8-.3l7.9 4.1c.3.2.4.5.3.8-.1.3-.3.4-.5.4zM84.9 44.2c-.3 0-.6-.3-.6-.6V29.2c0-.3.3-.6.6-.6s.6.3.6.6v14.4c0 .3-.3.6-.6.6z"/><path fill="#061B30" d="M75.1 54.5c-.3 0-.5-.2-.6-.5l-1.6-5.6c-.1-.3.1-.7.4-.8.3-.1.7.1.8.4l1.4 5.1 14.4-2.4-1.6-7.7-7.4 2.5c-.2.1-.3 0-.5 0-.2-.1-.3-.2-.3-.4l-2.7-9.3c-.1-.3.1-.7.4-.8.3-.1.7.1.8.4l2.6 8.7 7.4-2.5c.2-.1.4 0 .5.1.2.1.3.2.3.4l1.9 9c0 .2 0 .3-.1.5-.1.1-.2.2-.4.3l-15.6 2.6h-.1z"/><path fill="#8FC0E4" d="M88.8 78.9h-5l10-24.5h5z"/><path fill="#FFF" d="M68.9 128.7v-7.5c0-.8.2-1.7.6-2.4.5-1 1.6-1.7 2.7-1.9 1.3-.2 2.2.3 3.4.8 2.1.8 4.2 1.8 6.3 2.7 5.1 2.2 10.2 4.4 15.2 6.5l3.6 1.5-31.8.3z"/><path fill="#8FC0E4" d="M157.3 128.6H125l15.4-19h30.4z"/><path fill="#FFF" d="M115.8 128.7c2 0 3.9-1.1 5.7-2 1.8-1 3.6-2 5.3-3.2 1-.7 1.9-1.4 2.7-2.2 2.2-2.1 4-4.7 5.7-7.2.9-1.2 1.6-2.5 2.7-3.5 1-.9 2.2-1.4 3.5-.9 1 .4 1.9 1.1 2.9 1.6 1.6 1.1 5.1 3.9 3.3 6.3-1.3 1.7-11.5 9.4-20.7 11 0 .1-11.1.1-11.1.1z"/><path fill="#061B30" d="M84.8 37.1c-.2 0-.4-.1-.5-.2l-7-8.2c-.2-.3-.2-.7.1-.9.3-.2.7-.2.9.1l7 8.2c.2.3.2.7-.1.9-.1.1-.3.1-.4.1z"/><path fill="#FFF" d="M89.1 21.5s1.3 1.4 1.3 1.6c.4 1-.7 1.2-1.5 1.1-.1 0-1.7-.4-1.8-.3.1.1 2-2.3 2-2.4zM107.1 105.7c-1.8 0-3.2-2.4-3.2-5.6s1.4-5.6 3.2-5.6c1.8 0 3.2 2.4 3.2 5.6 0 3.2-1.4 5.6-3.2 5.6zm0-9.9c-.9 0-2 1.8-2 4.3s1 4.3 2 4.3 2-1.7 2-4.3c0-2.5-1.1-4.3-2-4.3z"/><ellipse cx="106.7" cy="100.1" fill="#FFF" rx="2.6" ry="4.9"/><path fill="#FFF" d="M104.1 94.6h2.9v11.2h-2.9z"/><ellipse cx="104.2" cy="100.2" fill="#8FC0E4" rx="2.6" ry="4.9"/><path fill="#FFF" d="M104.2 105.7c-1.8 0-3.2-2.4-3.2-5.6s1.4-5.6 3.2-5.6 3.2 2.4 3.2 5.6-1.4 5.6-3.2 5.6zm0-9.9c-.9 0-2 1.8-2 4.3s1 4.3 2 4.3 2-1.8 2-4.3-1.1-4.3-2-4.3z"/><path fill="#061B30" d="M90.2 47.9c-.3 0-.5-.2-.6-.4-.1-.3.1-.7.4-.8l4.6-1.5c.3-.1.7.1.8.4.1.3-.1.7-.4.8l-4.6 1.5h-.2z"/><path fill="#8FC0E4" d="M106.6 55.3c-.3 0-.5-.2-.6-.4l-3.4-11.1c-.1-.3.1-.7.4-.8.3-.1.7.1.8.4l3.4 11.1c.1.3-.1.7-.4.8h-.2zM146.2 128.6c1.3 0 3.2-1.2 4.4-1.6 3.4-1.3 6.5-3.3 9.2-5.7 2.2-2.1 4-4.7 5.7-7.2.9-1.2 1.6-2.5 2.7-3.5 1-.9 2.2-1.4 3.5-.9 1 .4 1.9 1.1 2.9 1.6 1.6 1.1 5.1 3.9 3.3 6.3-1.3 1.7-11.5 9.4-20.7 11h-11zM97.9 80.1h-9.5c-.3 0-.6-.3-.6-.6s.3-.6.6-.6h9.5c.3 0 .6.3.6.6s-.2.6-.6.6z"/><ellipse cx="86.8" cy="20.8" fill="#FFF" rx="1.4" ry="1" transform="rotate(-81.118 86.757 20.798)"/><path fill="#061B30" d="M86.7 22.6h-.2c-.4-.1-.8-.3-1-.7-.2-.4-.3-.8-.2-1.3.2-1 .9-1.7 1.7-1.6.8.1 1.3 1 1.2 2-.2.9-.8 1.6-1.5 1.6zm.2-2.8c-.3 0-.6.4-.7.9 0 .3 0 .6.1.8.1.1.2.3.4.3.3.1.7-.4.8-.9 0-.5-.3-1-.6-1.1z"/><path fill="#061B30" d="M79.047 20.057l.124-.79 6.52 1.018-.123.79zM87.2 26.4c-1.1-.2-1.8-.9-1.9-1-.2-.2-.1-.4 0-.6.2-.2.4-.2.6 0 0 0 .6.6 1.3.7.2 0 .4.2.3.5.1.2-.1.4-.3.4z"/><circle cx="78" cy="91.1" r=".8" fill="#061B30"/><g><circle cx="90.1" cy="91.1" r=".8" fill="#061B30"/></g><g><circle cx="119.1" cy="91.1" r=".8" fill="#061B30"/></g><g><circle cx="119.1" cy="104.7" r=".8" fill="#061B30"/></g><g><circle cx="131.2" cy="91.1" r=".8" fill="#061B30"/></g><g><circle cx="78" cy="104.3" r=".8" fill="#061B30"/></g><g><circle cx="90.1" cy="104.3" r=".8" fill="#061B30"/></g><path fill="#8FC0E4" d="M186.4 130.5H13.6c-.6 0-1-.5-1-1 0-.6.5-1 1-1h172.8c.6 0 1 .5 1 1 .1.6-.4 1-1 1z"/></svg>