<svg xmlns="http://www.w3.org/2000/svg" width="200" height="84.5" viewBox="0 0 200 84.5"><path fill="#FFF" d="M54.8 83.9c-.6 0-1-.5-1-1.2V14.1c0-.6.4-1.2 1-1.2s1 .5 1 1.2v68.6c0 .6-.3 1.2-1 1.2zM182.3 83.9c-.6 0-1.5-.5-1.5-1.2v-69c0-.6.9-1.2 1.5-1.2s1.5.5 1.5 1.2v69c0 .6-.8 1.2-1.5 1.2zM18.3 83.9c-.6 0-1.5-.5-1.5-1.2V1.9c0-.6.9-1.2 1.5-1.2s1.5.5 1.5 1.2v80.8c0 .6-.8 1.2-1.5 1.2z"/><path fill="#061B30" d="M74.3 23.1s-37.5 7.4-37.8 7.5C32 31.5 27 35 25 39.2c-.5 1.1-.9 2.5-1 3.7l-.5 4.3h47.7l3.1-24.1z"/><path fill="#FFF" d="M71.2 48.2H23.5c-.2 0-.4-.1-.5-.3-.1-.1-.2-.4-.2-.6l.5-4.3c0-1.5.6-3 1-4.1 2-4.2 7-8 12.1-9 .3-.1 36.2-7.1 37.8-7.4.2 0 .5 0 .6.2.2.2.2.4.2.6l-3.1 24.2c0 .4-.3.7-.7.7zm-46.9 1.7h46.3l2.9-26.1C67.7 25 37 31.1 36.7 31.2c-4.6 1-9.3 4.5-11.1 8.3-.5 1.1-.9 2.5-.9 3.5v-.2l-.4 7.1z"/><path fill="#FFF" d="M26.2 37.2l1.3-1.4 38.6-2.3.1 1.4zM63.5 45.4l5.7-22 31.4-6s27.3-3.9 35.8 11.1h15.3v16.9L124 55.9l-46.9-1.1-13.6-9.4z"/><path fill="#061B30" d="M66.095 33.444l38.746-2.084.075 1.398-38.746 2.084z"/><path fill="#061B30" d="M101.3 43.1c-.4 0-.7-.4-.7-.8 1.2-14.6 16.2-20.6 16.3-20.7.4-.1.8 0 .9.4.1.4 0 .8-.4.9-.1.1-14.3 5.7-15.4 19.5 0 .4-.3.7-.7.7zM135.3 41.9c-.4 0-.7-.1-.7-.4-.1-3.8-5.3-5.1-5.4-5.1l-16.5-3.7c-.4-.1-.6-.4-.5-.8.1-.4.5-.6.8-.5l16.6 3.7c.3.1 6.3 1.5 6.4 6.3 0 .4-.3.5-.7.5z"/><path fill="#061B30" d="M119.9 34.3c-.2 0-.4-.1-.5-.3-.2-.3-.2-.7.1-1l6.3-5.2c.3-.2.7-.2 1 .1.2.3.2.7-.1 1l-6.3 5.2c-.2.1-.4.2-.5.2zM123.9 43.6c-.4 0-.7-.2-.7-.6v-8.1c0-.4.3-.7.7-.7.4 0 .7.3.7.7V43c.1.3-.3.6-.7.6z"/><ellipse cx="148.7" cy="32.9" fill="#061B30" rx="4.2" ry="5.4"/><path fill="#FFF" d="M148.7 39c-2.7 0-4.9-2.7-4.9-6.1s2.2-6.1 4.9-6.1 4.9 2.7 4.9 6.1-2.2 6.1-4.9 6.1zm0-10.8c-1.9 0-3.5 2.1-3.5 4.7s1.6 4.7 3.5 4.7 3.5-2.1 3.5-4.7-1.5-4.7-3.5-4.7z"/><path fill="#061B30" d="M141.6 38.3c-2.7 0-6.1-.3-7.9-2-.9-.9-1.4-2.1-1.4-3.5v-.3c0-4 3.2-5.2 4.9-5.3.4 0 .7.3.7.7 0 .4-.3.7-.7.7-.4 0-3.6.3-3.6 3.9v.3c0 1.1.3 1.9.9 2.5 1.8 1.8 5.9 1.7 8.6 1.6h2.1c.4 0 .7.3.7.7 0 .4-.3.7-.7.7h-3.6zM78.6 31.6c-.6 0-1.1-.2-1.4-.5-.5-.4-.8-.9-.9-1.7l-.6-2.8c-.4-1.7.3-3.1 1.7-3.4l6.2-1.3c.4-.1.8.2.8.5l1.5 6.9c0 .2 0 .4-.1.5-.1.2-.3.3-.4.3l-6.2 1.3c-.2.2-.4.2-.6.2zm4.6-8.1l-5.5 1.2c-.7.2-.7 1.2-.6 1.7l.6 2.8c.1.4.2.7.4.9.1.1.3.2.7.1l5.5-1.2-1.1-5.5z"/><path fill="#FFF" d="M34.7 50.2l-1.3-.5 6.4-20.4 1.3.4z"/><path fill="#061B30" d="M142.8 32.9c-.1 0-.3-.1-.4-.2-1-1.4-.2-2.9.3-3.5.2-.2.5-.2.7 0 .2.2.2.5 0 .7 0 .1-1 1.2-.2 2.3.1.2.1.5-.1.7-.1-.1-.2 0-.3 0z"/><path fill="#FFF" d="M140.6 28.5c0-1 .8-1.7 1.7-1.7s1.7.8 1.7 1.7"/><path fill="#061B30" d="M137.8 34c-.4 0-1-.3-1-.7v-.9c0-.4.6-.7 1-.7s1 .3 1 .7v.9c0 .3-.6.7-1 .7z"/><g><ellipse cx="99.2" cy="28.5" fill="#061B30" rx="1" ry="1" transform="scale(.99996) rotate(-85.027 99.219 28.53)"/></g><g><ellipse cx="90.9" cy="28.7" fill="#061B30" rx="1" ry="1" transform="scale(.99996) rotate(-85.027 90.894 28.7)"/></g><g><path fill="#061B30" d="M136 45.9h-1.4v-4.7l1.4.2z"/></g><g><path fill="#8FC0E4" d="M154.8 45.1c-4 0-4.7-3.6-9.7-3.6-5 0-4.8 3.6-9.8 3.6-5 0-5-3.6-10-3.6s-5 3.6-10 3.6-5-3.6-10-3.6-5 3.6-10 3.6-5-3.6-10-3.6-5 3.6-10 3.6-5-3.6-10-3.6-5 3.6-10 3.6-5-3.6-10-3.6-5 3.6-10 3.6-4.7-3.6-9.7-3.6c-3.3 0-3.9 1.5-5.9 2.6V49h135v-3.9z"/></g><g><path fill="#8FC0E4" d="M19.8 47.9h164v15.4h-164z"/></g><g><path fill="#FFF" d="M18.8 57.7h126.4v5.6H18.8z"/></g><g><path fill="#8FC0E4" d="M183.8 57.2c0 2.1-1.7 3.8-3.8 3.8h-29.5c-2.1 0-3.8-1.7-3.8-3.8V34.7c0-2.1 1.7-3.8 3.8-3.8H180c2.1 0 3.8 1.7 3.8 3.8v22.5z"/></g><g><path fill="#FFF" d="M145.8 83.9c-.6 0-1-.5-1-1.2V3.3c0-.6.4-1.2 1-1.2s1 .5 1 1.2v79.4c0 .6-.3 1.2-1 1.2z"/></g><path fill="#8FC0E4" d="M194.4 84.5H5.6c-.6 0-1.1-.5-1.1-1s.5-1 1.1-1h188.8c.6 0 1.1.5 1.1 1s-.5 1-1.1 1z"/></svg>