<svg xmlns="http://www.w3.org/2000/svg" width="200" height="147" viewBox="0 0 200 147"><path fill="#FFF" d="M143 105.3c0 .5-.5.9-1 .9h-21.7c-.6 0-1.2 0-1.2-.5.7-1.4 1.5-3.1 2.2-4.5 1.1-2.4 2.2-4.7 3.4-7.1.4-.7.7-1.5 1-2.3.2-.6.5-1.2 1.2-1.2h21.7c.8 0 1.1.9.8 1.5-.2.3-.3.7-.5 1-.5 1.1-1.1 2.2-1.6 3.3-1.1 2.4-2.3 4.8-3.5 7.2-.2.6-.5 1.1-.8 1.7z"/><path fill="#061B30" d="M152.5 133.3l-8.5-26.6-.2-1c-3.8-7.4-12.7-3.2-12.7-3.2l-11 3.9h-6.5l2.1 13.2h20l9.7 12.3"/><path fill="#FFF" d="M151.8 133.5l-8.5-26.7-.2-.9c-3.4-6.6-11.4-3-11.7-2.8h-.1l-11.1 4h-5.8l1.9 11.8H136l9.9 12.6-1.1.9-9.5-12h-20.2l-2.3-14.6h7.2l10.8-3.9c.6-.3 9.7-4.1 13.6 3.6l.1.2.2.9 8.5 26.6-1.4.3z"/><path fill="#8FC0E4" d="M149.5 134.1c.8-2.8 3.7-4.4 6.5-3.6 2.8.8 4.4 3.7 3.6 6.5"/><path fill="#061B30" d="M113.2 106.3l.2 12.8h23.7"/><path fill="#FFF" d="M137.1 119.8h-24.4l-.2-13.5h1.4l.2 12.1h23zM85.4 139.1v5.1c0 .8-.7 1.5-1.5 1.5h-1.4c-.8 0-1.4-.7-1.4-1.5v-5.1M105.6 139.1v5.1c0 .8-.7 1.5-1.5 1.5h-1.4c-.8 0-1.4-.7-1.4-1.5v-5.1M141.8 137.7v6.5c0 .8-.8 1.5-1.5 1.5h-1.4c-.8 0-1.3-.7-1.3-1.5v-6.5M119.7 137.7v6.5c0 .8-.7 1.5-1.5 1.5h-1.4c-.8 0-1.4-.7-1.4-1.5v-6.5"/><path fill="#8FC0E4" d="M108 139.6v-19.8c0-5.8-.7-18.9-10-15.7 4.9-1.7 12.4-2.4 16.2 1.8 1.6 1.8 2.1 4.4 2.2 6.8 0 .4.6 5.2.5 5.2l26.3-.5v22.1l-35.2.1zM82 39.5h21.7c2.9 0 5.8-.1 8.7 0 3.7.1 7.6.6 10.4 3.3.8.8 1.5 1.7 2 2.7 2.8 5.1 2.4 11.9 1.8 17.5-.9 8.9-5.3 16.9-8.7 25.1-1.6 4-3.2 7.8-4.9 12H84.6c.8 0 4.1-15 4.4-16.4 1.8-6.9 3.4-13.9 4-21 .6-7.2-.5-14.8-6.3-19.7-1.5-1.3-4-2-6.2-2l1.5-1.5z"/><path fill="#8FC0E4" d="M109.4 139.5H78.1c-.4 0-.7-.3-.7-.7-.1-.8-5.2-79.6-5.9-88.9-.2-3.4.6-6.1 2.6-7.9 3.7-3.4 9.7-2.5 10-2.5l-.2 1.5c-.1 0-5.6-.8-8.8 2.1-1.6 1.5-2.4 3.8-2.2 6.8.6 8.8 5.3 80.6 5.8 88.2h30.6v1.4z"/><path fill="#061B30" d="M96.8 84.6l7.4-5.7c.8 1.1 1.5 2.2 2.3 3.3 1.3 1.8 2.5 3.6 3.8 5.4 1.5 2.1 2.8 4.7 3 7.3.1.7 0 1.5-.2 2.1l-1.5 4.7-27.1-1.2c0 .2 1.2-9.6 12.3-15.9z"/><path fill="#FFF" d="M84.9 99.6c-3.5 9.4 4 7 4 7 2.8-.9 5.6-1.6 8.3-2.4 2.5-.7 4.9-1.4 7.5-1.4 1.6 0 3.3.2 4.8.7 1.3.5 2.9 2 4.3 1.5.7-.2 1.1-.9 1.4-1.5.1-.1.8-1.7.9-1.7.8.4 1.7.9 2.5 1.3.4.2.8.5 1.3.7.5.2 1.1-.3.9-.9-.2-.4-.7-.7-1.1-1-1.3-.8-2.5-1.8-3.8-2.7-.3-.2-.7-.5-1-.7-1.4-.9-2.7-1.4-4.3-.7-1 .4-1.8 1-2.7 1.7"/><ellipse cx="104.8" cy="71.5" fill="#FFF" rx="9" ry="9.2"/><path fill="#FFF" d="M95.5 82.8s5.1 8.2 14.1 4l-5.4-7.8-4-.8-4.7 4.6z"/><path fill="#8FC0E4" d="M154.3 135.4h-.2l-10.4-3c-.4-.1-.6-.5-.5-.9.1-.4.5-.6.9-.5l10.4 3c.4.1.6.5.5.9-.1.3-.4.5-.7.5zM54.1 139.3c-2.3-7-4.5-14.2-6.7-21.1l-1.3-4.1c-5-16.1-8.8-29.7-7.9-46 .7-13.6 4.2-26.4 10-37.1 6.5-12 15.9-20.6 27-25 18-7 35.4-7 48.9-.1L123 8.2c-12.9-6.6-29.6-6.6-47 .2-10.6 4.1-19.5 12.4-25.8 23.9-5.6 10.2-9 23-9.7 36.1-.8 15.9 2.9 29.3 7.8 45.2l1.3 4.1c2.2 6.9 4.4 14.1 6.7 21.1l-2.2.5z"/><path fill="#8FC0E4" d="M117.8 10.1c8.2 0 14.8 1.7 15.6 3.9-.5-6.6-7.3-11.9-15.6-11.9s-15 5.3-15.6 11.9c.8-2.2 7.5-3.9 15.6-3.9z"/><path fill="#FFF" d="M102.2 14.3V14v.3zM133.5 14.3c0-.1 0-.3-.1-.4v.7c0-.1.1-.2.1-.3zM117.8 18.6c8.3 0 15.1-1.8 15.6-4v-.7c-.7-2.2-7.4-3.9-15.6-3.9s-14.9 1.7-15.6 3.9v.6c.5 2.3 7.3 4.1 15.6 4.1z"/><g><path fill="#8FC0E4" d="M55.4 136.4c-7.7 0-14.2 4.1-17 9.3h34.1c-2.9-5.2-9.4-9.3-17.1-9.3z"/></g><g><path fill="#061B30" d="M112.3 66.3c-2.5-3.9-8.9-5.8-12.9-3.3-4.1 2.6-5.1 7.5-5.4 12-.2 3.6-.2 9.7-.2 11.4l-.3.5.3-.3v.1l.2-.2c1.2-.9 4.6-3.4 9.3-4.3V72h-.1c.2 0 .5.2.7.2.6.2 1.3.4 1.9.5 1.6.2 3.7.2 5.1-.7.9-.5 1.8-1.4 2.2-2.4.5-1.1-.2-2.4-.8-3.3z"/></g><g><path fill="#061B30" d="M144.3 145l.3-1.8c1-5.1 2.9-13.5 3.8-18.6.4-2.2.9-4.5 1.3-6.7 1-5.5 1.3-11.4-5.8-12.1l-19.8 11.5 15.3.1c-6.3 10.5.5 27.6.5 27.6"/><path fill="#FFF" d="M139.3 145.2c-.1-.2-1.8-4.4-2.7-10-.8-4.9-1.1-11.7 1.6-17.2l-16.7-.1 21.7-12.6v-.3l.8.1c2.5.3 4.3 1.2 5.5 2.7 2 2.6 1.6 6.5.9 10.2-.2 1.1-.4 2.2-.6 3.2-.2 1.1-.5 2.3-.7 3.5-.5 2.8-1.3 6.6-2.1 10.3-.7 3.1-1.3 6-1.7 8.3l-.3 1.8-1.4-.2.3-1.8c.4-2.4 1.1-5.3 1.7-8.4.8-3.7 1.6-7.5 2.1-10.3.2-1.2.4-2.4.7-3.5.2-1.1.4-2.1.6-3.2.6-3.3 1-7-.7-9.2-.9-1.2-2.3-1.8-4.2-2.1l-17.4 10.1 13.9.1-.6 1.1c-6 10.1.5 26.9.6 27l-1.3.5z"/></g><g><path fill="#8FC0E4" d="M143 145.7c0-2.9 2.3-5.3 5.2-5.3s5.2 2.4 5.2 5.3"/></g><g><path fill="#8FC0E4" d="M147.9 145.7h-10.8c-.4 0-.7-.3-.7-.7s.3-.7.7-.7h10.8c.4 0 .7.3.7.7s-.3.7-.7.7z"/></g><g><path fill="#FFF" d="M112.7 75c.1.7.2 1.4.2 2.1 0 .3.1.7.1 1 0 .3.1.6-.1.8-.3.4-.8 0-1.1-.2-.4-.2-.7-.5-1.1-.7l-.3-.2 2.3-2.8z"/></g><g><path fill="#061B30" d="M109.6 75.2c-.3 0-.6-.1-.8-.2-.6-.4-.7-1-.7-1.3-.1-.5-.1-.9-.2-1.4l-.1-.6c0-.3.1-.6.4-.7.3-.1.6-.1.8.1l1.1 1 .2.2c.1.1.2.2.4.3.2.2.3.4.4.6.4.8 0 1.7-.7 2h-.8zm-.9-3c.1.4.1.9.2 1.3s.1.6.3.7c.2.1.4.1.6 0 .3-.1.4-.5.3-.8 0-.1-.1-.2-.2-.3l-.3-.3c-.1-.1-.2-.1-.2-.2l-.7-.4z"/><ellipse cx="109.7" cy="73.9" fill="#061B30" rx=".6" ry=".6" transform="rotate(-24.92 109.69 73.906)"/></g><g><path fill="#061B30" d="M109.2 80c-.1 0-.1 0 0 0-1.5-.3-2.3-1.5-2.3-1.5-.1-.2-.1-.5.2-.6.2-.1.5-.1.6.2 0 0 .5.8 1.6 1.1.3.1.4.3.4.6-.1.1-.3.2-.5.2z"/></g><g><path fill="#8FC0E4" d="M173.5 147h-147c-.4 0-.7-.3-.7-.7s.3-.7.7-.7h147c.4 0 .7.3.7.7s-.3.7-.7.7z"/></g></svg>