<svg xmlns="http://www.w3.org/2000/svg" width="200" height="147" viewBox="0 0 200 147"><path fill="#8FC0E4" d="M183.7 147H16.3c-.4 0-.8-.4-.8-.8s.4-.8.8-.8h167.3c.4 0 .8.4.8.8.1.4-.3.8-.7.8z"/><path fill="#FFF" d="M96.6 133.6H95v-17.8c0-5.3 2.3-12.2 8.7-14.3l.5 1.5c-5.6 1.9-7.6 8.1-7.6 12.8v17.8z"/><path fill="#8FC0E4" d="M43.4 132.5h-4.7c-1 0-1.8-.8-1.8-1.8s.8-1.8 1.8-1.8h4.7c1 0 1.8.8 1.8 1.8s-.8 1.8-1.8 1.8zM111.7 31.7l-.4-1s3.4-1.3 5.6-2.2c1-.4 1.7-1.1 2-1.9.2-.6.1-1.1-.2-1.7-.6-.9-1.7-1-3.5-.3l-5.7 2.2-.4-1 5.7-2.2c2.3-.9 3.9-.7 4.8.7.5.8.6 1.7.3 2.5-.4 1.1-1.4 2-2.6 2.5-2.2 1-5.6 2.4-5.6 2.4z"/><path fill="#061B30" d="M112.9 34.8s2.5-1.4 2.4-4.6h-4.8"/><path fill="#FFF" d="M112.9 35.3c-.2 0-.4-.1-.5-.3-.1-.3 0-.6.2-.7.1 0 1.9-1.1 2.1-3.6h-4.2c-.3 0-.5-.2-.5-.5s.2-.5.5-.5h4.8c.3 0 .5.2.5.5.1 3.5-2.5 5-2.6 5.1h-.3z"/><path fill="#061B30" d="M102.7 49.3L113 87"/><path fill="#8FC0E4" d="M101.961 49.495l1.543-.423 10.33 37.712-1.543.423z"/><path fill="#061B30" d="M92.1 56.8l13.3 37"/><path fill="#8FC0E4" d="M91.294 57.034l1.506-.54 13.275 36.988-1.506.541z"/><path fill="#061B30" d="M73.9 106.8l2.6 33.7-8.3.2L55 89.1z"/><path fill="#8FC0E4" d="M67.6 141.4l-14-54.8 21.1 19.8 2.7 34.9-9.8.1zM56.4 91.5l12.4 48.4 6.8-.1-2.5-32.6-16.7-15.7z"/><path fill="#8FC0E4" d="M81.8 143.6H69.7c-1 0-1.8-.8-1.8-1.8s.8-1.8 1.8-1.8h12.1c1 0 1.8.8 1.8 1.8.1 1-.7 1.8-1.8 1.8z"/><path fill="#FFF" d="M68.8 143.5c-.3 0-.7-.2-.8-.6l-2.6-9.5c-.1-.4.1-.9.6-1 .4-.1.9.1 1 .6l2.6 9.5c.1.4-.1.9-.6 1h-.2zM76 106.7h28.4v1.6H76zM163.8 130.4l-.2-.4c-.1-.1-.2-.2-.3-.4-2.1-3.1-4.2-6.2-6.3-9.4l-.9-1.5c-.6-1-1.3-2.1-2-2.9-.7-.8-1.8-1-2.9-.5l-.7-1.4c1.7-.8 3.5-.4 4.7.9.8 1 1.5 2.1 2.2 3.1.3.5.6 1 .9 1.4l6.3 9.3c.2.2.2.3.2.3.1.1.2.2.3.4l-1 .7v.2h-.2l-.1.2z"/><path fill="#FFF" d="M157.6 119l-1.6-.2c0-.1.7-5.6-1.4-8-.6-.7-1.5-1.1-2.5-1.1v-1.6c1.5 0 2.8.5 3.7 1.6 2.6 3 1.8 9.1 1.8 9.3z"/><path fill="#8FC0E4" d="M94.5 91.5H105v3.7H94.5z"/><path fill="#FFF" d="M96 43.2l2.5-16.3 10.1-2.5 5.9 14.1-3.3-.4c-.1 1.4-.3 2.8-.3 4.1 0 .8-.2 1.5-.9 2-.8.6-1.9.8-2.9.9-.9.1-1.8 0-2.8-.2-5.8.5-8.6-1.7-8.6-1.7M63.8 78.2c-6.3-5.5-4.7-17.6 3.5-27S85.9 40.3 94.1 43"/><path fill="#8FC0E4" d="M103.4 64.6h48.5v68h-48.5z"/><path fill="#FFF" d="M124.5 64.6h27.4v68h-27.4z"/><path fill="#061B30" d="M103.4 77.2h48.5v1.6h-48.5zM103.4 70.4h48.5V72h-48.5zM103.4 84.1h48.5v1.6h-48.5zM103.4 118.9h48.5v1.6h-48.5zM103.4 112h48.5v1.6h-48.5zM103.4 125.7h48.5v1.6h-48.5z"/><path fill="#8FC0E4" d="M39.8 146c-6.1 0-11.4-6.7-11.7-15.2-.4-8.6 4.5-15.9 10.8-16.2 6.3-.3 11.7 6.5 12.1 15.2.2 4.1-.8 8-2.7 11-2 3.2-4.9 5.1-8.1 5.2h-.4zm-.6-27.7H39c-4.2.2-7.5 5.8-7.2 12.3.3 6.4 3.9 11.7 8 11.7h.2c1.9-.1 3.8-1.3 5.1-3.5 1.5-2.4 2.2-5.5 2.1-8.8-.3-6.4-3.9-11.7-8-11.7z"/><path fill="#FFF" d="M38.3 130.5c-.3 0-.6-.2-.7-.5-.1-.3-.1-.6.2-.9L61 105.7l1.1 1.1-21.8 22h55.5v1.6l-57.5.1z"/><path fill="#061B30" d="M60.1 72.3c-1.8 1.7-4.9 5.1-5.8 7.2-1.9 4.2-.8 8.9 2.6 11.8 3.9 3.3 7.7 6.7 11.5 10.1-9.3 3-13.5 17.4-13.5 17.4l6.5 2 18.8-16.3s4.3-4.3.7-8.4l-8.8-10.8-12-13z"/><path fill="#8FC0E4" d="M61.6 121.7l-7.7-2.3.2-.8c.2-.6 4.1-13.6 12.8-17.4-1-.9-2-1.8-3-2.6L56.4 92c-3.7-3.2-4.8-8.2-2.8-12.7 1-2.3 4.2-5.8 6-7.5l.6-.5 12.5 13.5 8.9 10.8c3.3 3.6 1 7.8-.7 9.5l-19.3 16.6zm-5.7-3.4l5.4 1.6 18.5-16c.3-.3 3.7-3.9.6-7.3l-8.8-10.8-11.5-12.4c-1.8 1.7-4.3 4.6-5.1 6.4-1.7 3.9-.8 8.2 2.4 10.9 2.5 2.2 5.1 4.4 7.5 6.6 1.3 1.2 2.6 2.3 4 3.5l1 .9-1.3.4c-7.6 2.5-11.7 13.3-12.7 16.2z"/><path fill="#8FC0E4" d="M60.6 71.9l10.5 13.5 24.1-17.9s10.1-5.6 9.2-22.6l-14.1-2.8-30.2 29.1"/><path fill="#061B30" d="M63 68.3h16.2v-4.2H67.6z"/><path fill="#8FC0E4" d="M79.5 64.2l3.2 24.1H91l.8-28.3z"/><path fill="#FFF" d="M82.7 88.3h8.2s5.8 1 5.4 5.5c-.5 4.5-9.7 6.2-10.3-.9 0 0-2.8-1.4-3.3-4.6z"/><ellipse cx="61.9" cy="129.8" fill="#061B30" rx="4.7" ry="6.8"/><path fill="#FFF" d="M61.9 137.4c-3 0-5.4-3.4-5.4-7.6s2.4-7.6 5.4-7.6 5.4 3.4 5.4 7.6-2.4 7.6-5.4 7.6zm0-13.7c-2.1 0-3.9 2.8-3.9 6.1s1.8 6.1 3.9 6.1c2.1 0 3.9-2.8 3.9-6.1s-1.8-6.1-3.9-6.1z"/><path fill="#8FC0E4" d="M97.6 31.2l12.4-4.5-1.5-4.2s-1.7-2.7-5.3-1.2c-3.6 1.5-7.8 1.5-6.5 5.9l.9 4z"/><path fill="#061B30" d="M106.8 32.6c.2.6.5 1.1 1 1.4l.6.3h.8c.9-.3 1.5-1 1.8-1.8.2-.4.3-.9.4-1.3.1-.4.2-.7.3-1.1l.1-.2h-5.7c.1 0 .1.5.2.8l.3 1.2c0 .2.1.5.2.7zM80.7 79.7c-.4 0-.7-.3-.8-.7l-1.4-14.1c0-.4.3-.8.7-.9.4 0 .8.3.9.7l1.4 14.1c0 .5-.3.9-.8.9.1 0 0 0 0 0z"/><path fill="#8FC0E4" d="M59.764 71.988l1.193-1.066 11.79 13.2-1.193 1.067z"/><circle cx="87.1" cy="93.3" r="2.1" fill="#8FC0E4"/><path fill="#FFF" d="M94.2 100.9h-6.6c-.4 0-.8-.4-.8-.8s.4-.8.8-.8h6.6c1.1 0 1.9-.3 2.5-.8 1.1-1.2 1.1-3.5 1.1-5.6V92c0-.4.4-.8.8-.8s.8.4.8.8v.9c0 2.4.1 5.1-1.5 6.8-.9.8-2.2 1.2-3.7 1.2z"/><path fill="#061B30" d="M139.2 133l-1.6-.2c.1-.6.1-1.3.2-2.1.8-7.9 2.3-22.6 14.2-22.6v1.6c-10.4 0-11.8 13.3-12.6 21.2-.1.8-.2 1.5-.2 2.1z"/><path fill="#061B30" d="M151.4 115.9c-.3 0-.5-.1-.7-.4l-6.1-9.4c-.2-.4-.1-.9.2-1.1.4-.2.9-.1 1.1.2l6.1 9.4c.2.4.1.9-.2 1.1-.1.1-.3.2-.4.2z"/><path fill="#FFF" d="M61.8 131.3c-.3 0-.7-.2-.8-.6l-2.6-9.5c-.1-.4.1-.9.6-1 .4-.1.9.1 1 .6l2.6 9.5c.1.4-.1.9-.6 1h-.2z"/><path fill="#8FC0E4" d="M68.4 124.2c-.2 0-.4 0-.6-.1l-12.2-4.2c-1-.3-1.5-1.4-1.1-2.3.3-1 1.4-1.5 2.3-1.1l12.2 4.2c1 .3 1.5 1.4 1.1 2.3-.2.7-.9 1.2-1.7 1.2z"/><path fill="#061B30" d="M100.3 29.8h11.1v1.1h-11.1z"/><circle cx="98.5" cy="32.6" r="3.1" fill="#061B30"/><path fill="#8FC0E4" d="M98.5 36.2c-2 0-3.6-1.6-3.6-3.6s1.6-3.6 3.6-3.6 3.6 1.6 3.6 3.6-1.6 3.6-3.6 3.6zm0-6.1c-1.4 0-2.5 1.1-2.5 2.5s1.1 2.5 2.5 2.5 2.5-1.1 2.5-2.5-1.1-2.5-2.5-2.5z"/><path fill="#FFF" d="M98 32.7l-2-8.2c-.4-1.8-.1-4.9 2.2-5.8 1.8-.7 3.6.3 4.7 2.7l-1 .5c-.5-1.1-1.7-2.9-3.4-2.2-1.6.7-1.9 3.1-1.6 4.6l2 8.2-.9.2z"/><path fill="#061B30" d="M144.2 113.3c-.2 0-.4-.2-.5-.4l-12.5-48.2c-.1-.3.1-.6.4-.6.3-.1.6.1.6.4l12.5 48.2c.1.3-.1.6-.4.6h-.1z"/><g><path fill="#061B30" d="M152.4 110.1c-.2 0-.4-.2-.5-.4l-12.2-45.5c-.1-.3.1-.6.4-.6.3-.1.6.1.6.4l12.2 45.5c.1.3-.1.6-.4.6h-.1z"/></g><g><path fill="#061B30" d="M140.2 126.8h-.1L103 116.5c-.3-.1-.4-.4-.4-.6s.4-.4.6-.4l37.1 10.3c.3.1.4.4.4.6-.1.2-.3.4-.5.4z"/></g><g><circle cx="98.5" cy="32.6" r="1" fill="#FFF"/></g><g><path fill="#061B30" d="M110.7 41.4c-1.6 0-2.6-.9-2.6-1-.2-.2-.2-.5 0-.7.2-.2.5-.2.7 0 0 0 1 .9 2.4.7.3-.1.6.1.6.4.1.3-.1.6-.4.6-.3-.1-.5 0-.7 0z"/></g><g><path fill="#FFF" d="M150.8 136.2H94c-1 0-1.8-.8-1.8-1.8s.8-1.8 1.8-1.8h56.9c1 0 1.8.8 1.8 1.8s-.8 1.8-1.9 1.8z"/></g><g><path fill="#8FC0E4" d="M161.5 146c-6.1 0-11.4-6.7-11.7-15.2-.4-8.6 4.5-15.9 10.8-16.2 6.3-.3 11.7 6.5 12.1 15.2.2 4.1-.8 8-2.7 11-2 3.2-4.9 5.1-8.1 5.2h-.4zm-.7-27.7h-.2c-4.2.2-7.5 5.8-7.2 12.3.3 6.5 4.1 11.9 8.2 11.7 1.9-.1 3.8-1.3 5.1-3.5 1.5-2.4 2.2-5.5 2.1-8.8-.2-6.4-3.9-11.7-8-11.7z"/></g><g><path fill="#FFF" d="M151.697 122.879l1.317-.909 6.53 9.467-1.318.908z"/></g><g><path fill="#8FC0E4" d="M164 132.5h-4.2c-1 0-1.8-.8-1.8-1.8s.8-1.8 1.8-1.8h4.2c1 0 1.8.8 1.8 1.8.1 1-.8 1.8-1.8 1.8z"/></g><g><ellipse cx="159.3" cy="131" fill="#FFF" rx="1.6" ry="1.9"/></g><g><path fill="#061B30" d="M129.3 136.8c-.3 0-.5-.2-.5-.5V64.6c0-.3.2-.5.5-.5s.5.2.5.5v71.6c0 .3-.3.6-.5.6z"/></g><g><path fill="#061B30" d="M151.8 122.9L150 120c-1.6-2.8-.3-5.2.6-6.1l1.1 1.1-.5-.6.5.6c-.1.1-1.8 1.8-.4 4.1l1.8 2.9-1.3.9z"/></g><g><ellipse cx="38.6" cy="130.7" fill="#FFF" rx="1.6" ry="1.9"/></g><g><path fill="#061B30" d="M91.8 67.7V42.3l4.2.9v15.1c.1-.1 0 5.5-4.2 9.4z"/></g><g><path fill="#061B30" d="M90.4 42.1s1.5.3 1.5 2.5l4.2.2v-2.4l-5.7-.3z"/></g></svg>